<svg width="1533" height="905" viewBox="0 0 1533 905" fill="none" xmlns="http://www.w3.org/2000/svg">
<circle cx="56.5" cy="110.5" r="1.5" fill="white" fill-opacity="0.5"/>
<circle cx="575.5" cy="48.5" r="1.5" fill="white" fill-opacity="0.5"/>
<circle cx="1066.5" cy="29.5" r="1.5" fill="white" fill-opacity="0.5"/>
<circle cx="317.5" cy="336.5" r="1.5" fill="white" fill-opacity="0.5"/>
<circle cx="1327.5" cy="255.5" r="1.5" fill="white" fill-opacity="0.5"/>
<circle cx="945.5" cy="335.5" r="1.5" fill="white" fill-opacity="0.5"/>
<circle cx="406.5" cy="428.5" r="1.5" fill="white" fill-opacity="0.5"/>
<circle cx="1034.5" cy="427.5" r="1.5" fill="white" fill-opacity="0.5"/>
<circle cx="568.5" cy="516.5" r="1.5" fill="white" fill-opacity="0.5"/>
<circle cx="1196.5" cy="515.5" r="1.5" fill="white" fill-opacity="0.5"/>
<circle cx="372.5" cy="529.5" r="1.5" fill="white" fill-opacity="0.5"/>
<circle cx="1000.5" cy="528.5" r="1.5" fill="white" fill-opacity="0.5"/>
<circle cx="152.5" cy="461.5" r="1.5" fill="white" fill-opacity="0.5"/>
<circle cx="780.5" cy="460.5" r="1.5" fill="white" fill-opacity="0.5"/>
<circle cx="94.5" cy="354.5" r="1.5" fill="white" fill-opacity="0.5"/>
<circle cx="1104.5" cy="273.5" r="1.5" fill="white" fill-opacity="0.5"/>
<circle cx="722.5" cy="353.5" r="1.5" fill="white" fill-opacity="0.5"/>
<circle cx="1215.5" cy="254.5" r="1.5" fill="white" fill-opacity="0.5"/>
<circle cx="251.5" cy="479.5" r="1.5" fill="white" fill-opacity="0.5"/>
<circle cx="879.5" cy="478.5" r="1.5" fill="white" fill-opacity="0.5"/>
<circle cx="1372.5" cy="379.5" r="1.5" fill="white" fill-opacity="0.5"/>
<circle cx="17.5" cy="515.5" r="1.5" fill="white" fill-opacity="0.5"/>
<circle cx="510.5" cy="416.5" r="1.5" fill="white" fill-opacity="0.5"/>
<circle cx="645.5" cy="514.5" r="1.5" fill="white" fill-opacity="0.5"/>
<circle cx="1138.5" cy="415.5" r="1.5" fill="white" fill-opacity="0.5"/>
<circle cx="410.5" cy="135.5" r="1.5" fill="white" fill-opacity="0.5"/>
<circle cx="929.5" cy="73.5" r="1.5" fill="white" fill-opacity="0.5"/>
<circle cx="1420.5" cy="54.5" r="1.5" fill="white" fill-opacity="0.5"/>
<circle cx="903.5" cy="36.5" r="1.5" fill="white" fill-opacity="0.5"/>
<circle cx="1038.5" cy="134.5" r="1.5" fill="white" fill-opacity="0.5"/>
<circle cx="1531.5" cy="35.5" r="1.5" fill="white" fill-opacity="0.5"/>
<circle cx="200.5" cy="154.5" r="1.5" fill="white" fill-opacity="0.5"/>
<circle cx="719.5" cy="92.5" r="1.5" fill="white" fill-opacity="0.5"/>
<circle cx="1210.5" cy="73.5" r="1.5" fill="white" fill-opacity="0.5"/>
<circle cx="693.5" cy="55.5" r="1.5" fill="white" fill-opacity="0.5"/>
<circle cx="828.5" cy="153.5" r="1.5" fill="white" fill-opacity="0.5"/>
<circle cx="1321.5" cy="54.5" r="1.5" fill="white" fill-opacity="0.5"/>
<circle cx="56.5" cy="100.5" r="0.5" fill="white" fill-opacity="0.5"/>
<circle cx="575.5" cy="38.5" r="0.5" fill="white" fill-opacity="0.5"/>
<circle cx="1066.5" cy="19.5" r="0.5" fill="white" fill-opacity="0.5"/>
<circle cx="549.5" cy="1.5" r="0.5" fill="white" fill-opacity="0.5"/>
<circle cx="684.5" cy="99.5" r="0.5" fill="white" fill-opacity="0.5"/>
<circle cx="1177.5" cy="0.5" r="0.5" fill="white" fill-opacity="0.5"/>
<circle cx="276.5" cy="405.5" r="0.5" fill="white" fill-opacity="0.5"/>
<circle cx="795.5" cy="343.5" r="0.5" fill="white" fill-opacity="0.5"/>
<circle cx="1286.5" cy="324.5" r="0.5" fill="white" fill-opacity="0.5"/>
<circle cx="769.5" cy="306.5" r="0.5" fill="white" fill-opacity="0.5"/>
<circle cx="904.5" cy="404.5" r="0.5" fill="white" fill-opacity="0.5"/>
<circle cx="1397.5" cy="305.5" r="0.5" fill="white" fill-opacity="0.5"/>
<circle cx="341.5" cy="492.5" r="0.5" fill="white" fill-opacity="0.5"/>
<circle cx="969.5" cy="491.5" r="0.5" fill="white" fill-opacity="0.5"/>
<circle cx="263.5" cy="304.5" r="0.5" fill="white" fill-opacity="0.5"/>
<circle cx="782.5" cy="242.5" r="0.5" fill="white" fill-opacity="0.5"/>
<circle cx="1273.5" cy="223.5" r="0.5" fill="white" fill-opacity="0.5"/>
<circle cx="891.5" cy="303.5" r="0.5" fill="white" fill-opacity="0.5"/>
<circle cx="423.5" cy="503.5" r="0.5" fill="white" fill-opacity="0.5"/>
<circle cx="1051.5" cy="502.5" r="0.5" fill="white" fill-opacity="0.5"/>
<circle cx="170.5" cy="325.5" r="0.5" fill="white" fill-opacity="0.5"/>
<circle cx="689.5" cy="263.5" r="0.5" fill="white" fill-opacity="0.5"/>
<circle cx="1180.5" cy="244.5" r="0.5" fill="white" fill-opacity="0.5"/>
<circle cx="798.5" cy="324.5" r="0.5" fill="white" fill-opacity="0.5"/>
<circle cx="236.5" cy="524.5" r="0.5" fill="white" fill-opacity="0.5"/>
<circle cx="864.5" cy="523.5" r="0.5" fill="white" fill-opacity="0.5"/>
<circle cx="88.5" cy="594.5" r="0.5" fill="white" fill-opacity="0.5"/>
<circle cx="716.5" cy="593.5" r="0.5" fill="white" fill-opacity="0.5"/>
<circle cx="242.5" cy="620.5" r="0.5" fill="white" fill-opacity="0.5"/>
<circle cx="870.5" cy="619.5" r="0.5" fill="white" fill-opacity="0.5"/>
<circle cx="179.5" cy="555.5" r="0.5" fill="white" fill-opacity="0.5"/>
<circle cx="807.5" cy="554.5" r="0.5" fill="white" fill-opacity="0.5"/>
<circle cx="365.5" cy="613.5" r="0.5" fill="white" fill-opacity="0.5"/>
<circle cx="993.5" cy="612.5" r="0.5" fill="white" fill-opacity="0.5"/>
<circle cx="208.5" cy="389.5" r="0.5" fill="white" fill-opacity="0.5"/>
<circle cx="727.5" cy="327.5" r="0.5" fill="white" fill-opacity="0.5"/>
<circle cx="1218.5" cy="308.5" r="0.5" fill="white" fill-opacity="0.5"/>
<circle cx="836.5" cy="388.5" r="0.5" fill="white" fill-opacity="0.5"/>
<circle cx="35.5" cy="308.5" r="0.5" fill="white" fill-opacity="0.5"/>
<circle cx="554.5" cy="246.5" r="0.5" fill="white" fill-opacity="0.5"/>
<circle cx="1045.5" cy="227.5" r="0.5" fill="white" fill-opacity="0.5"/>
<circle cx="663.5" cy="307.5" r="0.5" fill="white" fill-opacity="0.5"/>
<circle cx="130.5" cy="303.5" r="0.5" fill="white" fill-opacity="0.5"/>
<circle cx="649.5" cy="241.5" r="0.5" fill="white" fill-opacity="0.5"/>
<circle cx="1140.5" cy="222.5" r="0.5" fill="white" fill-opacity="0.5"/>
<circle cx="758.5" cy="302.5" r="0.5" fill="white" fill-opacity="0.5"/>
<circle cx="88.5" cy="201.5" r="0.5" fill="white" fill-opacity="0.5"/>
<circle cx="607.5" cy="139.5" r="0.5" fill="white" fill-opacity="0.5"/>
<circle cx="1098.5" cy="120.5" r="0.5" fill="white" fill-opacity="0.5"/>
<circle cx="716.5" cy="200.5" r="0.5" fill="white" fill-opacity="0.5"/>
<circle cx="167.5" cy="124.5" r="0.5" fill="white" fill-opacity="0.5"/>
<circle cx="686.5" cy="62.5" r="0.5" fill="white" fill-opacity="0.5"/>
<circle cx="1177.5" cy="43.5" r="0.5" fill="white" fill-opacity="0.5"/>
<circle cx="795.5" cy="123.5" r="0.5" fill="white" fill-opacity="0.5"/>
<circle cx="109.5" cy="31.5" r="0.5" fill="white" fill-opacity="0.5"/>
<circle cx="737.5" cy="30.5" r="0.5" fill="white" fill-opacity="0.5"/>
<circle cx="249.5" cy="94.5" r="0.5" fill="white" fill-opacity="0.5"/>
<circle cx="768.5" cy="32.5" r="0.5" fill="white" fill-opacity="0.5"/>
<circle cx="1259.5" cy="13.5" r="0.5" fill="white" fill-opacity="0.5"/>
<circle cx="877.5" cy="93.5" r="0.5" fill="white" fill-opacity="0.5"/>
<circle cx="375.5" cy="311.5" r="2.5" fill="white" fill-opacity="0.5"/>
<circle cx="1385.5" cy="230.5" r="2.5" fill="white" fill-opacity="0.5"/>
<circle cx="1003.5" cy="310.5" r="2.5" fill="white" fill-opacity="0.5"/>
<circle cx="1146.5" cy="248.5" r="2.5" fill="white" fill-opacity="0.5"/>
<circle cx="1269.5" cy="545.5" r="2.5" fill="white" fill-opacity="0.5"/>
<circle cx="462.5" cy="582.5" r="2.5" fill="white" fill-opacity="0.5"/>
<circle cx="1090.5" cy="581.5" r="2.5" fill="white" fill-opacity="0.5"/>
<circle cx="1147.5" cy="43.5" r="2.5" fill="white" fill-opacity="0.5"/>
<circle cx="55.5" cy="416.5" r="2.5" fill="white" fill-opacity="0.5"/>
<circle cx="574.5" cy="354.5" r="2.5" fill="white" fill-opacity="0.5"/>
<circle cx="1065.5" cy="335.5" r="2.5" fill="white" fill-opacity="0.5"/>
<circle cx="106.5" cy="527.5" r="2.5" fill="white" fill-opacity="0.5"/>
<circle cx="20.5" cy="600.5" r="2.5" fill="white" fill-opacity="0.5"/>
<circle cx="648.5" cy="599.5" r="2.5" fill="white" fill-opacity="0.5"/>
<circle cx="1120" cy="104" r="2" fill="white" fill-opacity="0.5"/>
<circle cx="188" cy="199" r="2" fill="white" fill-opacity="0.5"/>
<circle cx="1198" cy="118" r="2" fill="white" fill-opacity="0.5"/>
<circle cx="40.5" cy="394.5" r="1.5" fill="white" fill-opacity="0.5"/>
<circle cx="559.5" cy="332.5" r="1.5" fill="white" fill-opacity="0.5"/>
<circle cx="1050.5" cy="313.5" r="1.5" fill="white" fill-opacity="0.5"/>
<circle cx="301.5" cy="620.5" r="1.5" fill="white" fill-opacity="0.5"/>
<circle cx="1311.5" cy="539.5" r="1.5" fill="white" fill-opacity="0.5"/>
<circle cx="929.5" cy="619.5" r="1.5" fill="white" fill-opacity="0.5"/>
<circle cx="390.5" cy="712.5" r="1.5" fill="white" fill-opacity="0.5"/>
<circle cx="1018.5" cy="711.5" r="1.5" fill="white" fill-opacity="0.5"/>
<circle cx="552.5" cy="800.5" r="1.5" fill="white" fill-opacity="0.5"/>
<circle cx="1180.5" cy="799.5" r="1.5" fill="white" fill-opacity="0.5"/>
<circle cx="356.5" cy="813.5" r="1.5" fill="white" fill-opacity="0.5"/>
<circle cx="984.5" cy="812.5" r="1.5" fill="white" fill-opacity="0.5"/>
<circle cx="136.5" cy="745.5" r="1.5" fill="white" fill-opacity="0.5"/>
<circle cx="764.5" cy="744.5" r="1.5" fill="white" fill-opacity="0.5"/>
<circle cx="78.5" cy="638.5" r="1.5" fill="white" fill-opacity="0.5"/>
<circle cx="1088.5" cy="557.5" r="1.5" fill="white" fill-opacity="0.5"/>
<circle cx="706.5" cy="637.5" r="1.5" fill="white" fill-opacity="0.5"/>
<circle cx="1199.5" cy="538.5" r="1.5" fill="white" fill-opacity="0.5"/>
<circle cx="235.5" cy="763.5" r="1.5" fill="white" fill-opacity="0.5"/>
<circle cx="863.5" cy="762.5" r="1.5" fill="white" fill-opacity="0.5"/>
<circle cx="1356.5" cy="663.5" r="1.5" fill="white" fill-opacity="0.5"/>
<circle cx="1.5" cy="799.5" r="1.5" fill="white" fill-opacity="0.5"/>
<circle cx="494.5" cy="700.5" r="1.5" fill="white" fill-opacity="0.5"/>
<circle cx="629.5" cy="798.5" r="1.5" fill="white" fill-opacity="0.5"/>
<circle cx="1122.5" cy="699.5" r="1.5" fill="white" fill-opacity="0.5"/>
<circle cx="394.5" cy="419.5" r="1.5" fill="white" fill-opacity="0.5"/>
<circle cx="913.5" cy="357.5" r="1.5" fill="white" fill-opacity="0.5"/>
<circle cx="1404.5" cy="338.5" r="1.5" fill="white" fill-opacity="0.5"/>
<circle cx="887.5" cy="320.5" r="1.5" fill="white" fill-opacity="0.5"/>
<circle cx="1022.5" cy="418.5" r="1.5" fill="white" fill-opacity="0.5"/>
<circle cx="1515.5" cy="319.5" r="1.5" fill="white" fill-opacity="0.5"/>
<circle cx="184.5" cy="438.5" r="1.5" fill="white" fill-opacity="0.5"/>
<circle cx="703.5" cy="376.5" r="1.5" fill="white" fill-opacity="0.5"/>
<circle cx="1194.5" cy="357.5" r="1.5" fill="white" fill-opacity="0.5"/>
<circle cx="677.5" cy="339.5" r="1.5" fill="white" fill-opacity="0.5"/>
<circle cx="812.5" cy="437.5" r="1.5" fill="white" fill-opacity="0.5"/>
<circle cx="1305.5" cy="338.5" r="1.5" fill="white" fill-opacity="0.5"/>
<circle cx="40.5" cy="384.5" r="0.5" fill="white" fill-opacity="0.5"/>
<circle cx="559.5" cy="322.5" r="0.5" fill="white" fill-opacity="0.5"/>
<circle cx="1050.5" cy="303.5" r="0.5" fill="white" fill-opacity="0.5"/>
<circle cx="533.5" cy="285.5" r="0.5" fill="white" fill-opacity="0.5"/>
<circle cx="668.5" cy="383.5" r="0.5" fill="white" fill-opacity="0.5"/>
<circle cx="1161.5" cy="284.5" r="0.5" fill="white" fill-opacity="0.5"/>
<circle cx="260.5" cy="689.5" r="0.5" fill="white" fill-opacity="0.5"/>
<circle cx="779.5" cy="627.5" r="0.5" fill="white" fill-opacity="0.5"/>
<circle cx="1270.5" cy="608.5" r="0.5" fill="white" fill-opacity="0.5"/>
<circle cx="753.5" cy="590.5" r="0.5" fill="white" fill-opacity="0.5"/>
<circle cx="888.5" cy="688.5" r="0.5" fill="white" fill-opacity="0.5"/>
<circle cx="1381.5" cy="589.5" r="0.5" fill="white" fill-opacity="0.5"/>
<circle cx="325.5" cy="776.5" r="0.5" fill="white" fill-opacity="0.5"/>
<circle cx="953.5" cy="775.5" r="0.5" fill="white" fill-opacity="0.5"/>
<circle cx="247.5" cy="588.5" r="0.5" fill="white" fill-opacity="0.5"/>
<circle cx="766.5" cy="526.5" r="0.5" fill="white" fill-opacity="0.5"/>
<circle cx="1257.5" cy="507.5" r="0.5" fill="white" fill-opacity="0.5"/>
<circle cx="875.5" cy="587.5" r="0.5" fill="white" fill-opacity="0.5"/>
<circle cx="407.5" cy="787.5" r="0.5" fill="white" fill-opacity="0.5"/>
<circle cx="1035.5" cy="786.5" r="0.5" fill="white" fill-opacity="0.5"/>
<circle cx="154.5" cy="609.5" r="0.5" fill="white" fill-opacity="0.5"/>
<circle cx="673.5" cy="547.5" r="0.5" fill="white" fill-opacity="0.5"/>
<circle cx="1164.5" cy="528.5" r="0.5" fill="white" fill-opacity="0.5"/>
<circle cx="782.5" cy="608.5" r="0.5" fill="white" fill-opacity="0.5"/>
<circle cx="220.5" cy="808.5" r="0.5" fill="white" fill-opacity="0.5"/>
<circle cx="848.5" cy="807.5" r="0.5" fill="white" fill-opacity="0.5"/>
<circle cx="72.5" cy="878.5" r="0.5" fill="white" fill-opacity="0.5"/>
<circle cx="700.5" cy="877.5" r="0.5" fill="white" fill-opacity="0.5"/>
<circle cx="226.5" cy="904.5" r="0.5" fill="white" fill-opacity="0.5"/>
<circle cx="854.5" cy="903.5" r="0.5" fill="white" fill-opacity="0.5"/>
<circle cx="163.5" cy="839.5" r="0.5" fill="white" fill-opacity="0.5"/>
<circle cx="791.5" cy="838.5" r="0.5" fill="white" fill-opacity="0.5"/>
<circle cx="349.5" cy="897.5" r="0.5" fill="white" fill-opacity="0.5"/>
<circle cx="977.5" cy="896.5" r="0.5" fill="white" fill-opacity="0.5"/>
<circle cx="192.5" cy="673.5" r="0.5" fill="white" fill-opacity="0.5"/>
<circle cx="711.5" cy="611.5" r="0.5" fill="white" fill-opacity="0.5"/>
<circle cx="1202.5" cy="592.5" r="0.5" fill="white" fill-opacity="0.5"/>
<circle cx="820.5" cy="672.5" r="0.5" fill="white" fill-opacity="0.5"/>
<circle cx="19.5" cy="592.5" r="0.5" fill="white" fill-opacity="0.5"/>
<circle cx="538.5" cy="530.5" r="0.5" fill="white" fill-opacity="0.5"/>
<circle cx="1029.5" cy="511.5" r="0.5" fill="white" fill-opacity="0.5"/>
<circle cx="647.5" cy="591.5" r="0.5" fill="white" fill-opacity="0.5"/>
<circle cx="114.5" cy="587.5" r="0.5" fill="white" fill-opacity="0.5"/>
<circle cx="633.5" cy="525.5" r="0.5" fill="white" fill-opacity="0.5"/>
<circle cx="1124.5" cy="506.5" r="0.5" fill="white" fill-opacity="0.5"/>
<circle cx="742.5" cy="586.5" r="0.5" fill="white" fill-opacity="0.5"/>
<circle cx="72.5" cy="485.5" r="0.5" fill="white" fill-opacity="0.5"/>
<circle cx="591.5" cy="423.5" r="0.5" fill="white" fill-opacity="0.5"/>
<circle cx="1082.5" cy="404.5" r="0.5" fill="white" fill-opacity="0.5"/>
<circle cx="700.5" cy="484.5" r="0.5" fill="white" fill-opacity="0.5"/>
<circle cx="151.5" cy="408.5" r="0.5" fill="white" fill-opacity="0.5"/>
<circle cx="670.5" cy="346.5" r="0.5" fill="white" fill-opacity="0.5"/>
<circle cx="1161.5" cy="327.5" r="0.5" fill="white" fill-opacity="0.5"/>
<circle cx="779.5" cy="407.5" r="0.5" fill="white" fill-opacity="0.5"/>
<circle cx="93.5" cy="315.5" r="0.5" fill="white" fill-opacity="0.5"/>
<circle cx="721.5" cy="314.5" r="0.5" fill="white" fill-opacity="0.5"/>
<circle cx="233.5" cy="378.5" r="0.5" fill="white" fill-opacity="0.5"/>
<circle cx="752.5" cy="316.5" r="0.5" fill="white" fill-opacity="0.5"/>
<circle cx="1243.5" cy="297.5" r="0.5" fill="white" fill-opacity="0.5"/>
<circle cx="861.5" cy="377.5" r="0.5" fill="white" fill-opacity="0.5"/>
<circle cx="359.5" cy="595.5" r="2.5" fill="white" fill-opacity="0.5"/>
<circle cx="1369.5" cy="514.5" r="2.5" fill="white" fill-opacity="0.5"/>
<circle cx="987.5" cy="594.5" r="2.5" fill="white" fill-opacity="0.5"/>
<circle cx="1130.5" cy="532.5" r="2.5" fill="white" fill-opacity="0.5"/>
<circle cx="1253.5" cy="829.5" r="2.5" fill="white" fill-opacity="0.5"/>
<circle cx="446.5" cy="866.5" r="2.5" fill="white" fill-opacity="0.5"/>
<circle cx="1074.5" cy="865.5" r="2.5" fill="white" fill-opacity="0.5"/>
<circle cx="1131.5" cy="327.5" r="2.5" fill="white" fill-opacity="0.5"/>
<circle cx="39.5" cy="700.5" r="2.5" fill="white" fill-opacity="0.5"/>
<circle cx="558.5" cy="638.5" r="2.5" fill="white" fill-opacity="0.5"/>
<circle cx="1049.5" cy="619.5" r="2.5" fill="white" fill-opacity="0.5"/>
<circle cx="90.5" cy="811.5" r="2.5" fill="white" fill-opacity="0.5"/>
<circle cx="4.5" cy="884.5" r="2.5" fill="white" fill-opacity="0.5"/>
<circle cx="632.5" cy="883.5" r="2.5" fill="white" fill-opacity="0.5"/>
<circle cx="1104" cy="388" r="2" fill="white" fill-opacity="0.5"/>
<circle cx="172" cy="483" r="2" fill="white" fill-opacity="0.5"/>
<circle cx="1182" cy="402" r="2" fill="white" fill-opacity="0.5"/>
</svg>
