<svg width="32" height="37" viewBox="0 0 32 37" fill="none" xmlns="http://www.w3.org/2000/svg">
<path d="M15.9566 3.10145H16.0436C16.6661 3.10145 17.289 3.16059 17.8953 3.27733C17.9323 3.28444 17.9692 3.28792 18.0055 3.28792C18.2779 3.28792 18.5209 3.09504 18.5743 2.81757C18.6347 2.50316 18.4289 2.1991 18.1145 2.13865C17.4362 2.00807 16.7394 1.94189 16.0436 1.94189H15.9566C15.6364 1.94189 15.3768 2.2015 15.3768 2.52171C15.3768 2.84193 15.6364 3.10145 15.9566 3.10145Z" fill="white"/>
<path d="M19.8871 3.88898C22.6046 5.05588 24.6925 7.45037 25.4722 10.2942C25.5428 10.5517 25.7764 10.7209 26.031 10.7209C26.0817 10.7209 26.1333 10.7141 26.1846 10.7001C26.4934 10.6154 26.6752 10.2964 26.5905 9.98758C25.7184 6.80654 23.3834 4.12833 20.3446 2.82343C20.0502 2.6971 19.7093 2.83317 19.583 3.12741C19.4568 3.42164 19.5929 3.76258 19.8871 3.88898Z" fill="white"/>
<path d="M26.0066 13.8663C25.4223 11.8916 23.3402 10.7605 21.3656 11.3448L17.5651 12.4694C17.2581 12.5603 17.0828 12.8829 17.1737 13.19C17.6472 14.7903 18.7156 16.1105 20.1821 16.9072C21.1108 17.4117 22.1285 17.6682 23.1565 17.6682C23.752 17.6682 24.3509 17.5821 24.9379 17.4084H24.9379C25.4579 17.2546 25.8867 16.9075 26.1456 16.4311C26.4044 15.9546 26.4623 15.406 26.3083 14.8861L26.0066 13.8663ZM25.1265 15.8774C25.0155 16.0816 24.8317 16.2305 24.6088 16.2964C23.3053 16.6821 21.93 16.5371 20.7356 15.8882C19.7129 15.3325 18.9278 14.4642 18.4813 13.4077L21.6945 12.4568C23.0562 12.054 24.4917 12.8338 24.8947 14.1954L25.1963 15.215C25.2623 15.4379 25.2375 15.6731 25.1265 15.8774Z" fill="white"/>
<path d="M7.06228 17.4084C7.64929 17.5821 8.24812 17.6681 8.84363 17.6681C9.87161 17.6681 10.8895 17.4117 11.818 16.9072C13.2845 16.1104 14.3529 14.7903 14.8264 13.1899C14.9173 12.8829 14.742 12.5603 14.4349 12.4694L10.6344 11.3448C9.67803 11.0618 8.6683 11.1682 7.79169 11.6444C6.91516 12.1206 6.27651 12.9098 5.9934 13.8663L5.69167 14.8859C5.37424 15.9593 5.989 17.0908 7.06228 17.4084ZM6.80376 15.2151L7.10549 14.1954C7.30062 13.5359 7.74097 12.9917 8.34538 12.6634C8.72813 12.4554 9.14753 12.3497 9.57126 12.3497C9.81664 12.3497 10.0636 12.3852 10.3055 12.4568L13.5188 13.4077C13.0722 14.4642 12.2871 15.3326 11.2644 15.8883C10.0701 16.5372 8.69458 16.6821 7.39123 16.2965C6.93116 16.1602 6.66762 15.6752 6.80376 15.2151Z" fill="white"/>
<path d="M16.5022 15.2226C16.3986 15.0432 16.2072 14.9327 16 14.9327C15.7928 14.9327 15.6014 15.0432 15.4979 15.2226L14.1579 17.5435C13.9034 17.9844 13.9034 18.5108 14.1579 18.9517C14.4124 19.3926 14.8683 19.6558 15.3774 19.6558H16.6225C17.1317 19.6558 17.5876 19.3925 17.8421 18.9516C18.0966 18.5108 18.0966 17.9844 17.842 17.5435L16.5022 15.2226ZM16.8379 18.3719C16.8111 18.4184 16.7475 18.4962 16.6226 18.4962H15.3775C15.2526 18.4962 15.189 18.4184 15.1623 18.372C15.1354 18.3255 15.0998 18.2315 15.1623 18.1234L16.0001 16.6723L16.8379 18.1234C16.9003 18.2315 16.8647 18.3255 16.8379 18.3719Z" fill="white"/>
<path d="M5.32614 23.6136C6.16077 23.6136 6.94793 23.3213 7.56934 22.7945C8.09202 23.569 8.37467 24.4843 8.37467 25.4286V26.1972C8.37467 26.5174 8.63427 26.777 8.95448 26.777H23.0456C23.3659 26.777 23.6254 26.5174 23.6254 26.1972V25.4286C23.6254 24.4843 23.9081 23.569 24.4307 22.7945C25.0522 23.3213 25.8393 23.6136 26.6739 23.6136C28.5924 23.6136 30.1532 22.0529 30.1532 20.1344C30.1532 19.1079 29.6972 18.1362 28.9197 17.478V12.8761C28.9197 9.42838 27.5747 6.18928 25.1326 3.75544C22.7011 1.33258 19.4752 0 16.0478 0C16.0173 0 15.9866 0 15.9562 0C12.525 0 9.29882 1.33273 6.8676 3.75552C4.42541 6.18928 3.08039 9.42838 3.08039 12.8761V17.478C2.30297 18.1361 1.84692 19.1079 1.84692 20.1344C1.847 22.0528 3.40772 23.6136 5.32614 23.6136ZM3.99387 18.2363C4.14826 18.1277 4.2401 17.9508 4.2401 17.7621V12.8761C4.2401 9.73885 5.46398 6.79152 7.68623 4.57693C9.89858 2.37215 12.8339 1.15964 15.9603 1.15964C15.9741 1.15964 15.9883 1.15964 16.0021 1.15971C19.1375 1.14935 22.0918 2.36241 24.3139 4.57693C26.5362 6.79152 27.7601 9.73893 27.7601 12.8762V17.7621C27.7601 17.9508 27.8519 18.1277 28.0063 18.2363C28.6245 18.6713 28.9936 19.3809 28.9936 20.1344C28.9936 21.4134 27.953 22.454 26.674 22.454C25.9533 22.454 25.2855 22.1267 24.8419 21.5558C24.7362 21.4199 24.5755 21.3379 24.4033 21.3322C24.2337 21.3266 24.0654 21.3975 23.9508 21.5263C22.9932 22.6027 22.4659 23.9885 22.4659 25.4287V25.6174H20.4657V23.6429C20.4657 23.3227 20.2062 23.0631 19.8859 23.0631C19.5656 23.0631 19.3061 23.3227 19.3061 23.6429V25.6174H16.5799V23.6429C16.5799 23.3227 16.3203 23.0631 16 23.0631C15.6798 23.0631 15.4202 23.3227 15.4202 23.6429V25.6174H12.6941V23.6429C12.6941 23.3227 12.4345 23.0631 12.1143 23.0631C11.794 23.0631 11.5344 23.3227 11.5344 23.6429V25.6174H9.5343V25.4287C9.5343 23.9885 9.0069 22.6027 8.04935 21.5263C7.93486 21.3976 7.76965 21.3267 7.59686 21.3322C7.42469 21.3379 7.26404 21.4199 7.15829 21.5558C6.71469 22.1266 6.04689 22.454 5.32614 22.454C4.04714 22.454 3.00664 21.4135 3.00664 20.1344C3.00664 19.3808 3.37571 18.6712 3.99387 18.2363Z" fill="white"/>
<path d="M26.1244 30.7956L26.1245 30.7957C26.3293 31.0559 26.4032 31.3957 26.3254 31.7175M26.1244 30.7956L25.8394 31.5998M26.1244 30.7956C25.9196 30.5356 25.607 30.3836 25.2758 30.3836H6.72419C6.39305 30.3836 6.08032 30.5355 5.87561 30.7957C5.67091 31.0558 5.59673 31.3956 5.67464 31.7175L5.67465 31.7175C5.70366 31.8373 5.71813 31.9587 5.71813 32.078C5.71813 32.9207 5.03168 33.6072 4.18884 33.6072C3.34609 33.6072 2.65964 32.9207 2.65964 32.078C2.65964 31.6432 2.84641 31.2266 3.17243 30.9361C3.4024 30.7312 3.53385 30.4379 3.53385 30.1299C3.53385 29.822 3.40242 29.5287 3.17248 29.3238L26.1244 30.7956ZM26.3254 31.7175L25.8394 31.5998M26.3254 31.7175C26.3254 31.7174 26.3254 31.7174 26.3254 31.7173L25.8394 31.5998M26.3254 31.7175C26.2964 31.8372 26.2819 31.9586 26.2819 32.078C26.2819 32.9207 26.9683 33.6072 27.8112 33.6072C28.654 33.6072 29.3404 32.9207 29.3404 32.078C29.3404 31.6431 29.1536 31.2266 28.8275 30.936M25.8394 31.5998C25.8013 31.7575 25.7819 31.9183 25.7819 32.078C25.7819 33.1969 26.6922 34.1072 27.8112 34.1072C28.9301 34.1072 29.8404 33.1969 29.8404 32.078C29.8404 31.5002 29.5924 30.948 29.1602 30.5627M28.8275 30.936C28.8275 30.936 28.8276 30.936 28.8276 30.936L29.1602 30.5627M28.8275 30.936C28.5978 30.7313 28.4661 30.4382 28.4661 30.13C28.4661 29.8221 28.5975 29.5288 28.8275 29.3239M28.8275 30.936L29.1602 30.5627M29.1602 30.5627L28.8275 29.3239M28.8275 29.3239C28.8275 29.3239 28.8275 29.3239 28.8274 29.3239L29.1601 29.6972L28.8275 29.3239ZM28.8275 29.3239C29.1535 29.0333 29.3403 28.6167 29.3403 28.1819C29.3403 27.3392 28.6539 26.6527 27.8111 26.6527C26.9683 26.6527 26.2819 27.3392 26.2819 28.1819C26.2819 28.3014 26.2964 28.4228 26.3253 28.5424L26.3254 28.5427C26.4031 28.8643 26.3292 29.204 26.1244 29.4643L26.1243 29.4644C25.9195 29.7244 25.6069 29.8763 25.2757 29.8763H6.72412C6.39298 29.8763 6.08025 29.7244 5.87553 29.4643L6.24809 29.1711L5.87553 29.4643C5.67075 29.2041 5.59681 28.8644 5.67452 28.5428L5.67459 28.5425C5.70366 28.4225 5.71813 28.3011 5.71813 28.1819C5.71813 27.3392 5.03168 26.6527 4.18884 26.6527C3.34609 26.6527 2.65964 27.3392 2.65964 28.1819C2.65964 28.6166 2.84638 29.0332 3.17243 29.3238L28.8275 29.3239ZM31.5 28.1818C31.5 26.1473 29.8456 24.4929 27.8112 24.4929C25.9342 24.4929 24.3808 25.901 24.1515 27.7166H7.84859C7.61926 25.901 6.06582 24.4929 4.18884 24.4929C2.15438 24.4929 0.5 26.1473 0.5 28.1818C0.5 28.8767 0.696905 29.5507 1.05713 30.1299C0.696894 30.709 0.5 31.3831 0.5 32.078C0.5 34.1124 2.15438 35.7668 4.18884 35.7668C6.06579 35.7668 7.61921 34.3588 7.84858 32.5433H24.1514C24.3808 34.3588 25.9342 35.7668 27.8111 35.7668C29.8455 35.7668 31.4999 34.1124 31.4999 32.078C31.4999 31.383 31.303 30.709 30.9428 30.1299C31.303 29.5507 31.5 28.8767 31.5 28.1818Z" fill="white" stroke="black"/>
</svg>
