<svg width="31" height="31" viewBox="0 0 31 31" fill="none" xmlns="http://www.w3.org/2000/svg">
<path fill-rule="evenodd" clip-rule="evenodd" d="M15.4949 0C11.8151 0.00190921 8.25603 1.30521 5.454 3.67685C2.65197 6.04848 0.789726 9.33382 0.200249 12.9454C-0.389228 16.557 0.332496 20.2593 2.23638 23.3903C4.14027 26.5213 7.10217 28.8769 10.5924 30.0358C11.3625 30.1787 11.6525 29.7015 11.6525 29.2957C11.6525 28.8899 11.6371 27.7134 11.632 26.4271C7.31989 27.3586 6.40871 24.6075 6.40871 24.6075C5.70544 22.821 4.68902 22.3514 4.68902 22.3514C3.28246 21.3969 4.79426 21.4148 4.79426 21.4148C6.35225 21.5245 7.17104 23.0047 7.17104 23.0047C8.55193 25.3603 10.7978 24.6789 11.6807 24.2808C11.8193 23.2829 12.2223 22.6041 12.6664 22.2187C9.22183 21.8308 5.60276 20.5088 5.60276 14.6032C5.58142 13.0716 6.15301 11.5905 7.19927 10.4662C7.04013 10.0783 6.50881 8.51129 7.35069 6.38283C7.35069 6.38283 8.65203 5.96939 11.614 7.96259C14.1546 7.27177 16.8351 7.27177 19.3757 7.96259C22.3352 5.96939 23.6339 6.38283 23.6339 6.38283C24.4784 8.50619 23.9471 10.0732 23.7879 10.4662C24.8375 11.5906 25.4103 13.0744 25.387 14.6083C25.387 20.5266 21.7602 21.8308 18.3105 22.211C18.865 22.6908 19.3603 23.6274 19.3603 25.0668C19.3603 27.1289 19.3424 28.7878 19.3424 29.2957C19.3424 29.7066 19.6221 30.1864 20.4075 30.0358C23.8982 28.8767 26.8604 26.5207 28.7643 23.3892C30.6681 20.2576 31.3895 16.5548 30.7993 12.9429C30.2092 9.33097 28.346 6.0456 25.5431 3.67437C22.7401 1.30314 19.1802 0.000699059 15.5 0H15.4949Z" fill="#F7F7F7"/>
<path d="M5.86416 22.1293C5.8308 22.2059 5.70759 22.2288 5.60749 22.1752C5.50739 22.1217 5.43296 22.0221 5.4689 21.943C5.50483 21.8639 5.62547 21.8435 5.72557 21.8971C5.82567 21.9507 5.90266 22.0527 5.86416 22.1293Z" fill="#F7F7F7"/>
<path d="M6.49315 22.826C6.43999 22.8526 6.37918 22.8601 6.32112 22.847C6.26306 22.834 6.21137 22.8013 6.17488 22.7545C6.07478 22.6474 6.05423 22.4993 6.13123 22.433C6.20823 22.3666 6.34685 22.3973 6.44695 22.5044C6.54705 22.6116 6.57015 22.7597 6.49315 22.826Z" fill="#F7F7F7"/>
<path d="M7.10377 23.7117C7.00881 23.778 6.84709 23.7117 6.75726 23.5789C6.73242 23.5551 6.71267 23.5266 6.69917 23.495C6.68567 23.4635 6.67871 23.4295 6.67871 23.3952C6.67871 23.3609 6.68567 23.3269 6.69917 23.2954C6.71267 23.2638 6.73242 23.2353 6.75726 23.2114C6.85223 23.1476 7.01394 23.2114 7.10377 23.3416C7.19361 23.4718 7.19618 23.6453 7.10377 23.7117V23.7117Z" fill="#F7F7F7"/>
<path d="M7.93315 24.5691C7.84845 24.6636 7.67648 24.6381 7.53531 24.5105C7.39414 24.3828 7.36077 24.2093 7.44547 24.1174C7.53017 24.0255 7.70214 24.0511 7.84844 24.1761C7.99475 24.3012 8.02298 24.4773 7.93315 24.5691V24.5691Z" fill="#F7F7F7"/>
<path d="M9.09555 25.0693C9.05704 25.1893 8.88251 25.2429 8.70797 25.1918C8.53343 25.1408 8.41793 24.9979 8.4513 24.8754C8.48467 24.7529 8.66177 24.6967 8.83887 24.7529C9.01598 24.809 9.12891 24.9443 9.09555 25.0693Z" fill="#F7F7F7"/>
<path d="M10.364 25.1562C10.364 25.2812 10.2203 25.3884 10.0355 25.3909C9.85065 25.3935 9.69922 25.2914 9.69922 25.1664C9.69922 25.0413 9.84295 24.9341 10.0278 24.9316C10.2126 24.929 10.364 25.0285 10.364 25.1562Z" fill="#F7F7F7"/>
<path d="M11.5443 24.9596C11.5674 25.0847 11.4391 25.2148 11.2543 25.2455C11.0695 25.2761 10.9078 25.2021 10.8847 25.0796C10.8616 24.9571 10.9951 24.8244 11.1747 24.7912C11.3544 24.758 11.5212 24.8346 11.5443 24.9596Z" fill="#F7F7F7"/>
</svg>
