<svg width="29" height="28" viewBox="0 0 29 28" fill="none" xmlns="http://www.w3.org/2000/svg">
<path d="M26.3144 0H2.44829C1.9001 0 1.37437 0.217767 0.986742 0.605394C0.599115 0.993022 0.381348 1.51876 0.381348 2.06694V25.9331C0.381348 26.4812 0.599115 27.007 0.986742 27.3946C1.37437 27.7822 1.9001 28 2.44829 28H26.3144C26.8626 28 27.3883 27.7822 27.776 27.3946C28.1636 27.007 28.3813 26.4812 28.3813 25.9331V2.06694C28.3813 1.51876 28.1636 0.993022 27.776 0.605394C27.3883 0.217767 26.8626 0 26.3144 0ZM8.7269 23.8525H4.51718V10.4806H8.7269V23.8525ZM6.61913 8.6275C6.14161 8.62481 5.67558 8.48073 5.27987 8.21344C4.88416 7.94614 4.57649 7.56762 4.3957 7.12564C4.21491 6.68365 4.1691 6.19802 4.26405 5.73003C4.359 5.26204 4.59045 4.83266 4.9292 4.49608C5.26794 4.1595 5.6988 3.93081 6.16739 3.83887C6.63599 3.74693 7.12131 3.79586 7.56212 3.97948C8.00294 4.16311 8.37948 4.47319 8.64422 4.87061C8.90897 5.26803 9.05006 5.73497 9.04968 6.2125C9.05419 6.53221 8.99428 6.84955 8.87353 7.14561C8.75278 7.44166 8.57366 7.71038 8.34685 7.93574C8.12003 8.16111 7.85017 8.3385 7.55334 8.45734C7.25651 8.57619 6.9388 8.63406 6.61913 8.6275ZM24.2436 23.8642H20.0358V16.5589C20.0358 14.4044 19.12 13.7394 17.9377 13.7394C16.6894 13.7394 15.4644 14.6806 15.4644 16.6133V23.8642H11.2547V10.4903H15.303V12.3433H15.3575C15.7638 11.5208 17.1872 10.115 19.3591 10.115C21.708 10.115 24.2455 11.5092 24.2455 15.5925L24.2436 23.8642Z" fill="#F7F7F7"/>
</svg>
