<svg width="29" height="30" viewBox="0 0 29 30" fill="none" xmlns="http://www.w3.org/2000/svg">
<path fill-rule="evenodd" clip-rule="evenodd" d="M24.7748 4.23329C22.0487 1.50488 18.4232 0.00153354 14.5606 0C6.60174 0 0.124256 6.47501 0.121071 14.4339C0.12001 16.9779 0.784938 19.4613 2.04846 21.6503L0 29.1304L7.65458 27.1231C9.76356 28.2731 12.1381 28.8791 14.5548 28.8801H14.5607C22.5187 28.8801 28.9968 22.4043 29 14.4454C29.0015 10.5884 27.501 6.96169 24.7748 4.23329ZM14.5607 26.4421H14.5558C12.4023 26.4413 10.2901 25.863 8.44746 24.7698L8.00918 24.5098L3.46691 25.701L4.67935 21.2737L4.39395 20.8198C3.1926 18.9095 2.55807 16.7017 2.55901 14.4348C2.56165 7.81969 7.94552 2.43794 14.5655 2.43794C17.771 2.43916 20.7843 3.68876 23.0502 5.95652C25.3162 8.22427 26.5633 11.2387 26.5621 14.4444C26.5593 21.06 21.1756 26.4421 14.5607 26.4421ZM21.1437 17.4566C20.7829 17.2761 19.0091 16.4035 18.6784 16.2831C18.3477 16.1628 18.1072 16.1026 17.8666 16.4637C17.6261 16.8247 16.9347 17.6372 16.7242 17.8778C16.5138 18.1186 16.3033 18.1487 15.9425 17.9681C15.5817 17.7876 14.4192 17.4068 13.0411 16.178C11.9686 15.2217 11.2445 14.0404 11.034 13.6794C10.8236 13.3183 11.0117 13.1231 11.1923 12.9433C11.3545 12.7817 11.553 12.522 11.7335 12.3114C11.9138 12.1008 11.9739 11.9503 12.0942 11.7097C12.2145 11.4689 12.1543 11.2583 12.0641 11.0778C11.9739 10.8972 11.2524 9.12194 10.9517 8.3998C10.6589 7.6965 10.3614 7.79166 10.14 7.78065C9.92977 7.77019 9.689 7.76794 9.44851 7.76794C9.20798 7.76794 8.81712 7.85823 8.48639 8.21928C8.1557 8.58037 7.22369 9.45295 7.22369 11.2282C7.22369 13.0035 8.51647 14.7185 8.69688 14.9592C8.87725 15.2 11.2409 18.8431 14.8602 20.4054C15.721 20.7769 16.393 20.9988 16.917 21.1652C17.7813 21.4396 18.5678 21.4009 19.1895 21.308C19.8827 21.2045 21.3241 20.4355 21.6248 19.593C21.9254 18.7505 21.9254 18.0283 21.8352 17.8779C21.745 17.7274 21.5045 17.6372 21.1437 17.4566Z" fill="white"/>
</svg>
